<?xml version="1.0" encoding="utf-8"?>
<!-- Generator: Adobe Illustrator 24.0.3, SVG Export Plug-In . SVG Version: 6.00 Build 0)  -->
<svg version="1.1" id="Layer_1" xmlns="http://www.w3.org/2000/svg" xmlns:xlink="http://www.w3.org/1999/xlink" x="0px" y="0px"
	 viewBox="0 0 199 59" style="enable-background:new 0 0 199 59;" xml:space="preserve">
<style type="text/css">
	.st0{enable-background:new    ;}
	.st1{fill:#E1AD21;}
</style>
<g>
	<g class="st0">
		<path class="st1" d="M83.7,10.5c-0.7-0.9-1.6-1.6-2.7-2.2s-2.3-0.8-3.5-0.8c-1.1,0-2.1,0.2-3.1,0.6s-1.8,1-2.6,1.7
			s-1.3,1.5-1.7,2.5c-0.4,0.9-0.6,2-0.6,3c0,1.1,0.2,2.1,0.6,3c0.4,0.9,1,1.8,1.7,2.5c0.7,0.7,1.6,1.3,2.6,1.7c1,0.4,2,0.6,3.1,0.6
			c1.3,0,2.5-0.3,3.5-0.8c1.1-0.5,2-1.3,2.7-2.2l1.2,0.9h0c-0.9,1.1-2,2-3.2,2.6c-1.3,0.7-2.7,1-4.2,1c-1.3,0-2.5-0.2-3.7-0.7
			c-1.2-0.5-2.2-1.2-3-2c-0.9-0.9-1.5-1.8-2-3s-0.8-2.3-0.8-3.6c0-1.3,0.3-2.5,0.8-3.6c0.5-1.1,1.2-2.1,2-3s1.9-1.5,3-2
			C74.8,6.3,76.1,6,77.4,6c1.5,0,2.9,0.3,4.2,1c1.3,0.6,2.4,1.5,3.2,2.6l0,0L83.7,10.5z M77.4,10.3c-0.7,0-1.4,0.1-2,0.4
			c-0.6,0.3-1.2,0.6-1.6,1.1s-0.8,1-1.1,1.6s-0.4,1.3-0.4,1.9c0,0.7,0.1,1.3,0.4,1.9c0.3,0.6,0.6,1.1,1.1,1.6s1,0.8,1.6,1.1
			c0.6,0.3,1.3,0.4,2,0.4c0.8,0,1.6-0.2,2.3-0.5c0.7-0.3,1.3-0.8,1.7-1.4l1.2,0.9c-0.6,0.8-1.4,1.4-2.3,1.8
			c-0.9,0.4-1.9,0.7-2.9,0.7c-0.9,0-1.8-0.2-2.6-0.5c-0.8-0.3-1.5-0.8-2.1-1.4c-0.6-0.6-1.1-1.3-1.4-2.1s-0.5-1.6-0.5-2.5
			c0-0.9,0.2-1.7,0.5-2.5s0.8-1.5,1.4-2.1c0.6-0.6,1.3-1.1,2.1-1.4c0.8-0.3,1.7-0.5,2.6-0.5c1.1,0,2,0.2,2.9,0.7
			c0.9,0.4,1.7,1,2.3,1.8l-1.2,0.9c-0.5-0.6-1.1-1.1-1.8-1.4C79,10.5,78.2,10.3,77.4,10.3z"/>
		<path class="st1" d="M88.3,24.6h-1.6l1.6-3.2l8.4-15.2l7.4,13.5H91l-1.3,2.4L88.3,24.6z M91.8,24.6h-1.7l2-3.6h12.8l2.1,3.6h-1.8
			l-1.1-2.1h-1.8l1.2,2.1h-1.7l-1.1-2.1l-7.6,0L91.8,24.6z M96.8,9.3l-4.9,8.9h1.8l3.2-5.6l3.1,5.6h1.8L96.8,9.3z M95.3,18.3l2.9,0
			l-1.4-2.5L95.3,18.3z"/>
		<path class="st1" d="M115.7,6.2c1.1,0,2.2,0.2,3.2,0.6c1,0.4,1.9,1,2.6,1.8c0.7,0.7,1.3,1.6,1.8,2.6s0.6,2.1,0.6,3.2
			s-0.2,2.2-0.6,3.2c-0.4,1-1,1.9-1.8,2.6c-0.7,0.7-1.6,1.3-2.6,1.8s-2,0.6-3.2,0.6h-2.9v2h-1.5v-2H110v2h-1.5v-3.5h7.2
			c0.9,0,1.8-0.2,2.6-0.5s1.5-0.8,2.1-1.4c0.6-0.6,1.1-1.3,1.4-2.1s0.5-1.7,0.5-2.6c0-0.9-0.2-1.8-0.5-2.6c-0.4-0.8-0.8-1.5-1.4-2.1
			c-0.6-0.6-1.3-1.1-2.1-1.4s-1.7-0.5-2.6-0.5H110v10.6h1.3V9.1h4.4c0.7,0,1.4,0.1,2.1,0.4c0.7,0.3,1.2,0.7,1.7,1.2
			c0.5,0.5,0.9,1.1,1.2,1.7c0.3,0.7,0.4,1.3,0.4,2.1c0,0.7-0.1,1.4-0.4,2.1c-0.3,0.7-0.7,1.2-1.2,1.7c-0.5,0.5-1.1,0.9-1.7,1.1
			c-0.7,0.3-1.3,0.4-2.1,0.4h-7.2V6.2H115.7z M112.8,18.3h2.9c0.5,0,1-0.1,1.5-0.3s0.9-0.5,1.2-0.8c0.4-0.4,0.6-0.8,0.8-1.2
			c0.2-0.5,0.3-1,0.3-1.5c0-0.5-0.1-1-0.3-1.5c-0.2-0.5-0.5-0.9-0.8-1.2c-0.4-0.4-0.8-0.6-1.2-0.8s-1-0.3-1.5-0.3h-2.9V18.3z"/>
		<path class="st1" d="M125.4,6.2h6.1h1.5h1.3h1.5h6.1v1.5h-6.1h-1.5H133V9v1.5v14.1h-1.5V10.5h-6.1V9h6.1V7.7h-6.1V6.2z
			 M141.9,10.5h-6.1v14.1h-1.5V10.5V9h1.5h6.1V10.5z"/>
		<path class="st1" d="M143.6,24.6V6.2h1.5v18.4H143.6z M146.5,24.6V6.2h1.5v18.4H146.5z"/>
		<path class="st1" d="M158.7,13.4c0.8,0.3,1.5,0.6,2.2,1c0.7,0.4,1.2,0.8,1.7,1.2c0.5,0.5,0.8,1,1.1,1.6c0.3,0.6,0.4,1.3,0.4,2.1
			c0,1.7-0.7,3-2,4c-1.2,0.9-2.8,1.3-4.8,1.3c-1,0-2-0.1-2.7-0.3s-1.5-0.5-2-0.8c-0.6-0.3-1.1-0.7-1.4-1.1c-0.4-0.4-0.7-0.8-0.9-1.1
			l1.2-0.8c0.4,0.6,0.8,1.1,1.4,1.4c0.5,0.4,1.1,0.6,1.6,0.8c0.5,0.2,1.1,0.3,1.6,0.4s1,0.1,1.4,0.1c0.8,0,1.5-0.1,2.2-0.3
			s1.2-0.4,1.7-0.8c0.9-0.7,1.4-1.6,1.4-2.8c0-0.5-0.1-1-0.2-1.4c-0.2-0.4-0.4-0.8-0.8-1.2c-0.4-0.4-0.8-0.7-1.4-1
			c-0.6-0.3-1.3-0.6-2.1-1l-1.2-0.5c-0.4-0.2-0.8-0.3-1.2-0.5c-0.4-0.2-0.7-0.4-1-0.6c-0.3-0.3-0.5-0.5-0.7-0.9s-0.3-0.7-0.3-1.2
			c0-0.8,0.3-1.4,0.9-1.8c0.6-0.5,1.3-0.7,2.3-0.7c0.9,0,1.6,0.1,2.1,0.4c0.6,0.3,1.1,0.7,1.5,1.4l-1.2,0.8
			c-0.2-0.4-0.5-0.7-0.9-0.9s-0.9-0.3-1.4-0.3c-0.4,0-0.7,0-0.9,0.1c-0.2,0.1-0.4,0.2-0.5,0.3c-0.1,0.1-0.2,0.2-0.3,0.4
			s-0.1,0.2-0.1,0.3c0,0.2,0,0.3,0.1,0.5c0,0.1,0.2,0.3,0.3,0.4c0.2,0.1,0.4,0.3,0.7,0.4s0.7,0.3,1.2,0.5L158.7,13.4z M157.2,22.1
			c-1.1,0-2.1-0.2-2.9-0.6s-1.4-1-2-1.8l1.2-0.8c0.2,0.3,0.4,0.5,0.6,0.7s0.5,0.4,0.8,0.6c0.3,0.2,0.6,0.3,1,0.4s0.8,0.1,1.3,0.1
			c0.2,0,0.4,0,0.6,0c0.3,0,0.6-0.1,0.8-0.2s0.5-0.2,0.7-0.4c0.2-0.2,0.3-0.4,0.3-0.7c0-0.2,0-0.4-0.1-0.6c-0.1-0.2-0.2-0.3-0.4-0.5
			c-0.2-0.2-0.5-0.3-0.8-0.5s-0.8-0.4-1.3-0.6l-1.3-0.5c-0.6-0.3-1.2-0.5-1.8-0.8s-1.1-0.7-1.5-1.1s-0.8-0.9-1.1-1.5
			c-0.3-0.6-0.4-1.3-0.4-2.1c0-0.7,0.1-1.4,0.4-2c0.3-0.6,0.7-1.2,1.2-1.6c0.5-0.4,1.2-0.8,1.9-1c0.7-0.3,1.5-0.4,2.4-0.4
			c2.6,0,4.5,0.9,5.8,2.8l-1.2,0.8c-1-1.4-2.5-2.1-4.6-2.1c-0.7,0-1.3,0.1-1.8,0.3c-0.5,0.2-1,0.4-1.4,0.7s-0.7,0.7-0.9,1.1
			s-0.3,0.9-0.3,1.4c0,0.5,0.1,0.9,0.2,1.3c0.1,0.4,0.4,0.7,0.7,1.1s0.7,0.6,1.2,0.9c0.5,0.3,1.1,0.6,1.8,0.9l1.2,0.5
			c0.5,0.2,1,0.4,1.4,0.6s0.8,0.4,1.1,0.7c0.3,0.3,0.6,0.6,0.8,0.9s0.3,0.8,0.3,1.3c0,0.3-0.1,0.7-0.2,1s-0.4,0.6-0.7,0.9
			c-0.3,0.3-0.7,0.5-1.2,0.6S157.9,22.1,157.2,22.1z"/>
	</g>
	<g class="st0">
		<path class="st1" d="M77.6,49.7L76.9,51l-5-9.1l-3.1-5.5l-0.9-1.6h1.6l0.6,1.1L77.6,49.7z M84.2,34.9h1.4l-1.5,2.8L79.1,47
			l-0.7,1.2l-0.7-1.3l-5.8-10.3h0L71.6,36L71,34.9h1.5l0.6,1.1l0.4,0.7h0l0.7,1.3l0.6,1.1l0.7,1.3l0.6,1v0l0.6,1.1l0,0.1l1.3-2.2
			l0.7-1.3l1.3-2.3l0.8-1.4l0.3-0.6h1.5l-1.3,2.3l-0.2,0.3l-2.6,4.8l-1,1.8l0.8,1.5l1.5-2.7l2.8-5.1L83,37L84.2,34.9z"/>
		<path class="st1" d="M87.1,34.9L87.1,34.9l10.8,0v1.3h-9.5v5.1h1.2v-4h8.3v1.3h-7v2.7h3v1.3h-6.8v-6.4V34.9z M90.9,45.1v2.1h7v1.3
			H87.1v-4.7h6.8v1.3H90.9z M87.1,51v-1.3h10.8V51H87.1z M89.6,47.2v-2.1h-1.2v2.1H89.6z"/>
		<path class="st1" d="M113.4,34.9h1.3v8.7v2.7v1.7l-13.5-10.4V51h-1.3V34.9l11,8.5v-8.5h1.3v9.5l1.2,0.9V34.9z M102.4,39.9
			l12.3,9.5v1.7l-11-8.5V51h-1.3V39.9z"/>
		<path class="st1" d="M116.9,34.9h5.3h1.3h1.2h1.3h5.3v1.3H126h-1.3h-1.2v1.2v1.3V51h-1.3V38.7h-5.3v-1.3h5.3v-1.2h-5.3V34.9z
			 M131.3,38.7H126V51h-1.3V38.7v-1.3h1.3h5.3V38.7z"/>
		<path class="st1" d="M145.8,34.9v9.7c0,0.7-0.1,1.4-0.3,2.1c-0.2,0.7-0.5,1.3-1,1.8c-0.2,0.2-0.3,0.5-0.5,0.6s-0.4,0.4-0.6,0.6
			c-0.4,0.3-0.8,0.6-1.3,0.8c-0.8,0.4-1.7,0.6-2.7,0.6c-1,0-1.9-0.2-2.7-0.6c-0.5-0.2-0.9-0.5-1.3-0.8c-0.2-0.2-0.4-0.4-0.6-0.6
			c-0.2-0.2-0.4-0.4-0.5-0.6c-0.4-0.5-0.7-1.1-1-1.8c-0.2-0.7-0.3-1.3-0.3-2.1v-9.7h1.3v5.8v3.9c0,0.6,0.1,1.2,0.3,1.8
			c0.2,0.5,0.5,1.1,0.9,1.5c0.2,0.2,0.4,0.4,0.6,0.6c0.2,0.2,0.4,0.4,0.7,0.5c0.4,0.2,0.8,0.4,1.3,0.6s0.9,0.2,1.4,0.2
			c0.5,0,1-0.1,1.5-0.2c0.5-0.1,0.9-0.3,1.3-0.6c0.5-0.3,0.9-0.7,1.3-1.1c0.4-0.5,0.7-1,0.9-1.5c0.2-0.5,0.3-1.1,0.3-1.8v-3.9v-5.8
			H145.8z M136.6,47.6c-0.4-0.4-0.7-0.8-0.9-1.3c-0.2-0.5-0.4-1.1-0.4-1.6v-3.3v-1.8v-4.6h1.3v3.8v1.5v1.5v2.9
			c0,0.4,0.1,0.7,0.2,1.1c0.1,0.3,0.3,0.6,0.6,0.9c0.2,0.2,0.5,0.4,0.9,0.6s0.7,0.2,1.1,0.2c0.4,0,0.7-0.1,1.1-0.2s0.6-0.3,0.9-0.6
			c0.2-0.2,0.4-0.5,0.6-0.9c0.1-0.3,0.2-0.7,0.2-1.1v-2.9v-1.5v-1.5v-3.8h1.3v4.6v1.8v3.3c0,0.6-0.1,1.1-0.4,1.6
			c-0.2,0.5-0.6,0.9-0.9,1.3c-0.4,0.3-0.8,0.6-1.2,0.8c-0.5,0.2-1,0.3-1.5,0.3c-0.5,0-1-0.1-1.5-0.3S137,47.9,136.6,47.6z"/>
		<path class="st1" d="M161.1,42.1c0,1.1-0.2,2.1-0.7,3c-0.5,0.9-1.1,1.7-1.8,2.4l1.8,3.5h-1.5l-1.4-2.8c-0.2,0.1-0.3,0.2-0.5,0.2
			s-0.3,0.1-0.5,0.2l1.2,2.3h-1.4l-1-1.9c-0.4,0.1-0.9,0.1-1.4,0.1h-2.6V51h-1.3v-1.8h-1.1V51h-1.3v-3.1h6.3c0.8,0,1.6-0.2,2.3-0.5
			c0.7-0.3,1.3-0.7,1.9-1.3s1-1.2,1.3-1.9c0.3-0.7,0.5-1.5,0.5-2.3s-0.2-1.6-0.5-2.3c-0.3-0.7-0.7-1.3-1.3-1.9s-1.2-1-1.9-1.3
			c-0.7-0.3-1.5-0.5-2.3-0.5h-5v9.3h1.1v-8.1h3.9c0.6,0,1.3,0.1,1.8,0.4c0.6,0.2,1.1,0.6,1.5,1c0.4,0.4,0.8,0.9,1,1.5
			c0.2,0.6,0.4,1.2,0.4,1.8s-0.1,1.3-0.4,1.8c-0.2,0.6-0.6,1.1-1,1.5c-0.4,0.4-0.9,0.8-1.5,1c-0.6,0.2-1.2,0.4-1.8,0.4l-6.3,0V34.9
			h6.3c1,0,1.9,0.2,2.8,0.6c0.9,0.4,1.6,0.9,2.3,1.5c0.7,0.7,1.2,1.4,1.5,2.3C160.9,40.2,161.1,41.1,161.1,42.1z M151.4,45.5h2.6
			c0.5,0,0.9-0.1,1.3-0.3c0.4-0.2,0.8-0.4,1.1-0.7c0.3-0.3,0.6-0.7,0.7-1.1c0.2-0.4,0.3-0.9,0.3-1.3c0-0.5-0.1-0.9-0.3-1.3
			s-0.4-0.8-0.7-1.1c-0.3-0.3-0.7-0.5-1.1-0.7c-0.4-0.2-0.9-0.3-1.3-0.3h-2.6V45.5z"/>
		<path class="st1" d="M162.3,34.9L162.3,34.9l10.8,0v1.3h-9.5v5.1h1.2v-4h8.3v1.3h-7v2.7h3v1.3h-6.8v-6.4V34.9z M166,45.1v2.1h7
			v1.3h-10.8v-4.7h6.8v1.3H166z M162.3,51v-1.3h10.8V51H162.3z M164.7,47.2v-2.1h-1.2v2.1H164.7z"/>
		<path class="st1" d="M182.5,41.2c0.7,0.3,1.3,0.6,1.9,0.9c0.6,0.3,1.1,0.7,1.5,1.1s0.7,0.9,1,1.4s0.3,1.1,0.3,1.8
			c0,1.5-0.6,2.6-1.8,3.5c-1.1,0.8-2.5,1.2-4.2,1.2c-0.9,0-1.7-0.1-2.4-0.3s-1.3-0.4-1.8-0.7c-0.5-0.3-0.9-0.6-1.3-1
			c-0.3-0.4-0.6-0.7-0.8-1l1.1-0.7c0.3,0.5,0.7,1,1.2,1.3c0.5,0.3,0.9,0.6,1.4,0.7c0.5,0.2,0.9,0.3,1.4,0.3c0.5,0.1,0.9,0.1,1.2,0.1
			c0.7,0,1.3-0.1,1.9-0.2s1.1-0.4,1.5-0.7c0.8-0.6,1.2-1.4,1.2-2.4c0-0.5-0.1-0.9-0.2-1.2c-0.1-0.4-0.4-0.7-0.7-1
			c-0.3-0.3-0.7-0.6-1.2-0.9c-0.5-0.3-1.1-0.6-1.8-0.8L181,42c-0.4-0.1-0.7-0.3-1.1-0.5c-0.3-0.2-0.6-0.3-0.9-0.6
			c-0.3-0.2-0.5-0.5-0.6-0.8c-0.1-0.3-0.2-0.6-0.2-1c0-0.7,0.3-1.2,0.8-1.6c0.5-0.4,1.2-0.6,2-0.6c0.8,0,1.4,0.1,1.9,0.4
			c0.5,0.2,0.9,0.7,1.3,1.2l-1.1,0.7c-0.2-0.3-0.5-0.6-0.8-0.7c-0.3-0.2-0.8-0.2-1.3-0.2c-0.3,0-0.6,0-0.8,0.1
			c-0.2,0.1-0.3,0.2-0.5,0.3c-0.1,0.1-0.2,0.2-0.2,0.3c0,0.1-0.1,0.2-0.1,0.3c0,0.2,0,0.3,0.1,0.4c0,0.1,0.1,0.2,0.3,0.4
			s0.3,0.2,0.6,0.4c0.3,0.1,0.6,0.3,1,0.4L182.5,41.2z M181.2,48.9c-1,0-1.8-0.2-2.5-0.5c-0.7-0.3-1.3-0.9-1.8-1.6L178,46
			c0.2,0.2,0.3,0.4,0.5,0.6s0.4,0.4,0.7,0.5c0.3,0.1,0.5,0.2,0.9,0.3s0.7,0.1,1.2,0.1c0.1,0,0.3,0,0.6,0c0.2,0,0.5-0.1,0.7-0.1
			c0.2-0.1,0.5-0.2,0.6-0.3c0.2-0.2,0.3-0.4,0.3-0.6c0-0.2,0-0.4-0.1-0.5c-0.1-0.2-0.2-0.3-0.4-0.5s-0.4-0.3-0.7-0.5
			c-0.3-0.2-0.7-0.3-1.1-0.5l-1.1-0.4c-0.6-0.2-1.1-0.5-1.6-0.7c-0.5-0.3-1-0.6-1.4-1c-0.4-0.4-0.7-0.8-0.9-1.3
			c-0.2-0.5-0.4-1.1-0.4-1.8c0-0.6,0.1-1.2,0.4-1.8s0.6-1,1.1-1.4s1-0.7,1.7-0.9c0.6-0.2,1.3-0.3,2.1-0.3c2.3,0,4,0.8,5.1,2.4
			L185,38c-0.9-1.2-2.2-1.9-4-1.9c-0.6,0-1.1,0.1-1.6,0.2s-0.9,0.4-1.2,0.6c-0.3,0.3-0.6,0.6-0.8,1c-0.2,0.4-0.3,0.8-0.3,1.3
			c0,0.4,0.1,0.8,0.2,1.1c0.1,0.3,0.3,0.6,0.6,0.9c0.3,0.3,0.6,0.6,1.1,0.8c0.4,0.2,1,0.5,1.6,0.7l1.1,0.4c0.4,0.2,0.8,0.4,1.2,0.5
			s0.7,0.4,1,0.6c0.3,0.2,0.5,0.5,0.7,0.8c0.2,0.3,0.3,0.7,0.3,1.1c0,0.3-0.1,0.6-0.2,0.9c-0.1,0.3-0.3,0.6-0.6,0.8
			c-0.3,0.2-0.6,0.4-1.1,0.6S181.9,48.9,181.2,48.9z"/>
	</g>
	<g>
		<g>
			<g>
				<g>
					<g>
						<g>
							<g>
								<g>
									<path class="st1" d="M28.2,53.9c-13.2,0-24-10.8-24-24s10.8-24,24-24s24,10.8,24,24S41.4,53.9,28.2,53.9z M28.2,8.2
										c-12,0-21.7,9.7-21.7,21.7s9.7,21.7,21.7,21.7s21.7-9.7,21.7-21.7S40.1,8.2,28.2,8.2z"/>
								</g>
							</g>
						</g>
					</g>
				</g>
			</g>
		</g>
	</g>
	<g>
		<g>
			<g>
				<g>
					<g>
						<g>
							<g>
								<g>
									<g>
										<path class="st1" d="M15.4,30.1h-0.1c-0.3-0.1-0.5-0.4-0.4-0.7c2.2-9,12-17.3,23.9-20.2c0.3-0.1,0.6,0.1,0.7,0.4
											s-0.1,0.6-0.4,0.7c-11.5,2.8-20.9,10.8-23,19.4C15.9,29.9,15.6,30.1,15.4,30.1z"/>
									</g>
								</g>
							</g>
						</g>
					</g>
				</g>
			</g>
		</g>
		<g>
			<g>
				<g>
					<g>
						<g>
							<g>
								<g>
									<g>
										<path class="st1" d="M17.6,50.6c-0.3,0-0.5-0.2-0.6-0.4c-0.1-0.3,0.1-0.6,0.4-0.7c11.9-3.3,20.5-10.5,23-19.3
											c0.1-0.3,0.4-0.5,0.7-0.4s0.5,0.4,0.4,0.7C39,39.6,30.1,47.1,17.8,50.6C17.7,50.6,17.7,50.6,17.6,50.6z"/>
									</g>
								</g>
							</g>
						</g>
					</g>
				</g>
			</g>
		</g>
	</g>
	<g>
		<g>
			<g>
				<g>
					<g>
						<g>
							<g>
								<g>
									<g>
										<path class="st1" d="M21,41.3c-0.1,0-0.3-0.1-0.4-0.2c-7.4-6.8-7.8-20.9-4.2-31.3c0.1-0.3,0.4-0.5,0.7-0.4
											c0.3,0.1,0.5,0.4,0.4,0.7c-3.4,10-3.1,23.6,3.9,30.1c0.2,0.2,0.3,0.6,0,0.8C21.3,41.2,21.2,41.3,21,41.3z"/>
									</g>
								</g>
							</g>
						</g>
					</g>
				</g>
			</g>
		</g>
		<g>
			<g>
				<g>
					<g>
						<g>
							<g>
								<g>
									<g>
										<path class="st1" d="M39.5,50.2c-0.1,0-0.1,0-0.2,0c-0.3-0.1-0.5-0.4-0.4-0.7c3.5-11.3,2.1-24.5-3.1-30
											c-0.2-0.2-0.2-0.6,0-0.8c0.2-0.2,0.6-0.2,0.8,0c6.3,6.7,6.4,21.1,3.3,31.2C39.9,50,39.7,50.2,39.5,50.2z"/>
									</g>
								</g>
							</g>
						</g>
					</g>
				</g>
			</g>
		</g>
	</g>
	<g>
		<g>
			<g>
				<g>
					<g>
						<g>
							<g>
								<g>
									<g>
										<path class="st1" d="M29,42.7c-8.6,0-16.6-4.5-24.1-13.3c-0.2-0.2-0.2-0.6,0.1-0.8c0.2-0.2,0.6-0.2,0.8,0.1
											C14.3,38.9,23.7,43,33.6,41.2c0.3-0.1,0.6,0.1,0.7,0.5c0.1,0.3-0.1,0.6-0.5,0.7C32.2,42.5,30.6,42.7,29,42.7z"/>
									</g>
								</g>
							</g>
						</g>
					</g>
				</g>
			</g>
		</g>
		<g>
			<g>
				<g>
					<g>
						<g>
							<g>
								<g>
									<g>
										<path class="st1" d="M50.9,30.9c-0.2,0-0.3-0.1-0.4-0.2c-9.1-10.2-17.9-14.3-27-12.6c-0.3,0.1-0.6-0.1-0.7-0.5
											c-0.1-0.3,0.1-0.6,0.5-0.7c9.5-1.8,18.7,2.4,28.1,13c0.2,0.2,0.2,0.6,0,0.8C51.2,30.9,51,30.9,50.9,30.9z"/>
									</g>
								</g>
							</g>
						</g>
					</g>
				</g>
			</g>
		</g>
	</g>
</g>
</svg>
