<?xml version="1.0" encoding="utf-8"?>
<!-- Generator: Adobe Illustrator 24.0.3, SVG Export Plug-In . SVG Version: 6.00 Build 0)  -->
<svg version="1.1" id="Layer_1" xmlns="http://www.w3.org/2000/svg" xmlns:xlink="http://www.w3.org/1999/xlink" x="0px" y="0px"
	 viewBox="0 0 199 59" style="enable-background:new 0 0 199 59;" xml:space="preserve">
<style type="text/css">
	.st0{fill:#E1AD21;}
	.st1{font-family:'KanjiPA';}
	.st2{font-size:25.1229px;}
	.st3{font-size:22px;}
</style>
<g>
	<text transform="matrix(1 0 0 1 67.8861 24.6295)"><tspan x="0" y="0" class="st0 st1 st2">CAPTIS </tspan><tspan x="0" y="26.4" class="st0 st1 st3">VENTURES</tspan></text>
	<g>
		<g>
			<g>
				<g>
					<g>
						<g>
							<g>
								<g>
									<path class="st0" d="M28.2,53.9c-13.2,0-24-10.8-24-24s10.8-24,24-24s24,10.8,24,24S41.4,53.9,28.2,53.9z M28.2,8.2
										c-12,0-21.7,9.7-21.7,21.7s9.7,21.7,21.7,21.7s21.7-9.7,21.7-21.7S40.1,8.2,28.2,8.2z"/>
								</g>
							</g>
						</g>
					</g>
				</g>
			</g>
		</g>
	</g>
	<g>
		<g>
			<g>
				<g>
					<g>
						<g>
							<g>
								<g>
									<g>
										<path class="st0" d="M15.4,30.1c0,0-0.1,0-0.1,0c-0.3-0.1-0.5-0.4-0.4-0.7c2.2-9,12-17.3,23.9-20.2
											c0.3-0.1,0.6,0.1,0.7,0.4s-0.1,0.6-0.4,0.7c-11.5,2.8-20.9,10.8-23,19.4C15.9,29.9,15.6,30.1,15.4,30.1z"/>
									</g>
								</g>
							</g>
						</g>
					</g>
				</g>
			</g>
		</g>
		<g>
			<g>
				<g>
					<g>
						<g>
							<g>
								<g>
									<g>
										<path class="st0" d="M17.6,50.6c-0.3,0-0.5-0.2-0.6-0.4c-0.1-0.3,0.1-0.6,0.4-0.7c11.9-3.3,20.5-10.5,23-19.3
											c0.1-0.3,0.4-0.5,0.7-0.4c0.3,0.1,0.5,0.4,0.4,0.7C39,39.6,30.1,47.1,17.8,50.6C17.7,50.6,17.7,50.6,17.6,50.6z"/>
									</g>
								</g>
							</g>
						</g>
					</g>
				</g>
			</g>
		</g>
	</g>
	<g>
		<g>
			<g>
				<g>
					<g>
						<g>
							<g>
								<g>
									<g>
										<path class="st0" d="M21,41.3c-0.1,0-0.3-0.1-0.4-0.2c-7.4-6.8-7.8-20.9-4.2-31.3c0.1-0.3,0.4-0.5,0.7-0.4
											c0.3,0.1,0.5,0.4,0.4,0.7c-3.4,10-3.1,23.6,3.9,30.1c0.2,0.2,0.3,0.6,0,0.8C21.3,41.2,21.2,41.3,21,41.3z"/>
									</g>
								</g>
							</g>
						</g>
					</g>
				</g>
			</g>
		</g>
		<g>
			<g>
				<g>
					<g>
						<g>
							<g>
								<g>
									<g>
										<path class="st0" d="M39.5,50.2c-0.1,0-0.1,0-0.2,0c-0.3-0.1-0.5-0.4-0.4-0.7c3.5-11.3,2.1-24.5-3.1-30
											c-0.2-0.2-0.2-0.6,0-0.8c0.2-0.2,0.6-0.2,0.8,0c6.3,6.7,6.4,21.1,3.3,31.2C39.9,50,39.7,50.2,39.5,50.2z"/>
									</g>
								</g>
							</g>
						</g>
					</g>
				</g>
			</g>
		</g>
	</g>
	<g>
		<g>
			<g>
				<g>
					<g>
						<g>
							<g>
								<g>
									<g>
										<path class="st0" d="M29,42.7c-8.6,0-16.6-4.5-24.1-13.3c-0.2-0.2-0.2-0.6,0.1-0.8c0.2-0.2,0.6-0.2,0.8,0.1
											c8.5,10.2,17.9,14.3,27.8,12.5c0.3-0.1,0.6,0.1,0.7,0.5c0.1,0.3-0.1,0.6-0.5,0.7C32.2,42.5,30.6,42.7,29,42.7z"/>
									</g>
								</g>
							</g>
						</g>
					</g>
				</g>
			</g>
		</g>
		<g>
			<g>
				<g>
					<g>
						<g>
							<g>
								<g>
									<g>
										<path class="st0" d="M50.9,30.9c-0.2,0-0.3-0.1-0.4-0.2c-9.1-10.2-17.9-14.3-27-12.6c-0.3,0.1-0.6-0.1-0.7-0.5
											c-0.1-0.3,0.1-0.6,0.5-0.7c9.5-1.8,18.7,2.4,28.1,13c0.2,0.2,0.2,0.6,0,0.8C51.2,30.9,51,30.9,50.9,30.9z"/>
									</g>
								</g>
							</g>
						</g>
					</g>
				</g>
			</g>
		</g>
	</g>
</g>
</svg>
